# xmcd CD database file
#
# Track frame offsets:
#	150
#	17591
#	36956
#	49746
#	59427
#	69362
#	77432
#	87100
#	98771
#	116082
#	129395
#	139272
#	149193
#	160153
#	168981
#	182288
#	194233
#	207104
#	221307
#	227454
#	236268
#	251674
#	259778
#	273592
#	288361
#
# Disc length: 4014 seconds
#
# Revision: 2
# Processed by: cddbd v1.5PL3 Copyright (c) Steve Scherf et al.
# Submitted via: CDex 1.50
#
DISCID=640fac19
DTITLE=Wabi Ryvola - Loudavy navraty CD2
DYEAR=2003
DGENRE=Folk
TTITLE0=Vodjizdim
TTITLE1=Vsedni den
TTITLE2=To zatraceny vedro
TTITLE3=Song nocniho nabrezi
TTITLE4=Dlouha cesta
TTITLE5=Podivnej weekend
TTITLE6=Upad nam kamarad
TTITLE7=Stara stezka
TTITLE8=Bleda hvezda
TTITLE9=Hic Sunt Leones
TTITLE10=Hobo a pes
TTITLE11=Mas chut evergreenu
TTITLE12=Loudavy navraty
TTITLE13=Demon alkohol
TTITLE14=Dum u smutny vily
TTITLE15=Ja bych chtel bejt bohatej
TTITLE16=Fajnova zeme
TTITLE17=Obycejny pondeli
TTITLE18=Vozralej vlak
TTITLE19=Bejt starej chlap
TTITLE20=Stary dobry western
TTITLE21=Prehlidka ztracenyho casu
TTITLE22=Muj nazor na vec
TTITLE23=Island
TTITLE24=Letokruhy
EXTD=YEAR: 2003
EXTT0=
EXTT1=
EXTT2=
EXTT3=
EXTT4=
EXTT5=
EXTT6=
EXTT7=
EXTT8=
EXTT9=
EXTT10=
EXTT11=
EXTT12=
EXTT13=
EXTT14=
EXTT15=
EXTT16=
EXTT17=
EXTT18=
EXTT19=
EXTT20=
EXTT21=
EXTT22=
EXTT23=
EXTT24=
PLAYORDER=
